<?xml version="1.0" encoding="UTF-8"?>
<svg version="1.1" xmlns="http://www.w3.org/2000/svg" width="64" height="63">
<path d="M0 0 C0.84755859 0.00322266 1.69511719 0.00644531 2.56835938 0.00976562 C3.44943359 0.01814453 4.33050781 0.02652344 5.23828125 0.03515625 C6.57729492 0.04192383 6.57729492 0.04192383 7.94335938 0.04882812 C10.14590112 0.06060642 12.34830724 0.07705461 14.55078125 0.09765625 C14.27363281 0.773125 13.99648438 1.44859375 13.7109375 2.14453125 C13.34871094 3.0365625 12.98648438 3.92859375 12.61328125 4.84765625 C12.25363281 5.729375 11.89398438 6.61109375 11.5234375 7.51953125 C10.69721549 9.70951729 10.05708182 11.81663896 9.55078125 14.09765625 C8.89078125 14.09765625 8.23078125 14.09765625 7.55078125 14.09765625 C7.34582031 14.79632813 7.14085937 15.495 6.9296875 16.21484375 C6.66027344 17.12492187 6.39085937 18.035 6.11328125 18.97265625 C5.84644531 19.87757812 5.57960937 20.7825 5.3046875 21.71484375 C4.55078125 24.09765625 4.55078125 24.09765625 3.55078125 26.09765625 C6.19078125 26.42765625 8.83078125 26.75765625 11.55078125 27.09765625 C11.84082031 25.97617187 11.84082031 25.97617187 12.13671875 24.83203125 C12.39710937 23.8471875 12.6575 22.86234375 12.92578125 21.84765625 C13.18101563 20.873125 13.43625 19.89859375 13.69921875 18.89453125 C14.44676634 16.43928322 15.32201942 14.3414822 16.55078125 12.09765625 C17.21078125 12.09765625 17.87078125 12.09765625 18.55078125 12.09765625 C18.86015625 11.14890625 19.16953125 10.20015625 19.48828125 9.22265625 C20.55078125 6.09765625 20.55078125 6.09765625 21.55078125 4.09765625 C25.16584817 5.58907399 27.15337081 7.64365467 29.67578125 10.59765625 C32.53247077 13.92248074 32.53247077 13.92248074 35.55078125 17.09765625 C37.83452849 26.84750022 38.15322433 39.08453855 33.55078125 48.09765625 C32.89078125 48.09765625 32.23078125 48.09765625 31.55078125 48.09765625 C31.30585937 48.67386719 31.0609375 49.25007813 30.80859375 49.84375 C27.64128986 55.5193225 21.30190848 60.73592057 15.0703125 62.703125 C8.99327045 63.65472383 2.67081706 63.63683561 -3.44921875 63.09765625 C-4.10921875 62.43765625 -4.76921875 61.77765625 -5.44921875 61.09765625 C-5.16046875 60.55496094 -4.87171875 60.01226562 -4.57421875 59.453125 C-4.01734375 58.37998047 -4.01734375 58.37998047 -3.44921875 57.28515625 C-3.07796875 56.57746094 -2.70671875 55.86976562 -2.32421875 55.140625 C-1.25236517 53.00844896 -1.25236517 53.00844896 -1.44921875 50.09765625 C-0.78921875 50.09765625 -0.12921875 50.09765625 0.55078125 50.09765625 C0.81890625 49.23140625 1.08703125 48.36515625 1.36328125 47.47265625 C2.52190112 44.17973661 3.93287964 41.1863775 5.55078125 38.09765625 C2.58078125 38.09765625 -0.38921875 38.09765625 -3.44921875 38.09765625 C-3.82046875 39.33515625 -4.19171875 40.57265625 -4.57421875 41.84765625 C-6.57254986 47.90057224 -9.50223717 53.46119634 -12.44921875 59.09765625 C-13.76921875 58.76765625 -15.08921875 58.43765625 -16.44921875 58.09765625 C-16.44921875 57.43765625 -16.44921875 56.77765625 -16.44921875 56.09765625 C-17.10921875 56.09765625 -17.76921875 56.09765625 -18.44921875 56.09765625 C-20.10546875 54.12109375 -20.10546875 54.12109375 -21.94921875 51.47265625 C-22.55765625 50.61414062 -23.16609375 49.755625 -23.79296875 48.87109375 C-28.45820225 41.05902823 -28.53215153 31.94731442 -27.44921875 23.09765625 C-26.30295026 19.31307558 -24.71303816 16.32359891 -22.44921875 13.09765625 C-21.72734375 12.02515625 -21.00546875 10.95265625 -20.26171875 9.84765625 C-14.73827175 4.44695252 -7.89375524 -0.05297822 0 0 Z " fill="#C34EE4" transform="translate(27.44921875,-0.09765625)"/>
<path d="" fill="#C44FDE" transform="translate(0,0)"/>
<path d="M0 0 C2 1 2 1 2 1 Z " fill="#C24CE6" transform="translate(0,12)"/>
<path d="" fill="#BF4CEA" transform="translate(0,0)"/>
<path d="" fill="#B84EEC" transform="translate(0,0)"/>
<path d="" fill="#C14DE6" transform="translate(0,0)"/>
<path d="" fill="#C14DE4" transform="translate(0,0)"/>
<path d="" fill="#C14DE6" transform="translate(0,0)"/>
<path d="" fill="#C14DE6" transform="translate(0,0)"/>
<path d="" fill="#C14DE6" transform="translate(0,0)"/>
<path d="" fill="#C14DE6" transform="translate(0,0)"/>
<path d="" fill="#C14DE6" transform="translate(0,0)"/>
<path d="" fill="#C14DE6" transform="translate(0,0)"/>
<path d="" fill="#CE52D6" transform="translate(0,0)"/>
<path d="" fill="#C14DE6" transform="translate(0,0)"/>
<path d="" fill="#C14DE6" transform="translate(0,0)"/>
<path d="" fill="#C84FDC" transform="translate(0,0)"/>
<path d="" fill="#C04DE8" transform="translate(0,0)"/>
<path d="" fill="#C14DE6" transform="translate(0,0)"/>
<path d="" fill="#C14DE6" transform="translate(0,0)"/>
<path d="" fill="#BF4CE5" transform="translate(0,0)"/>
<path d="" fill="#C04CE5" transform="translate(0,0)"/>
<path d="" fill="#C14DE6" transform="translate(0,0)"/>
<path d="" fill="#C14DE6" transform="translate(0,0)"/>
<path d="" fill="#BF4BEA" transform="translate(0,0)"/>
<path d="" fill="#BF4CE7" transform="translate(0,0)"/>
<path d="" fill="#C14DE6" transform="translate(0,0)"/>
<path d="" fill="#C14DE6" transform="translate(0,0)"/>
<path d="" fill="#C14DE6" transform="translate(0,0)"/>
<path d="" fill="#BF4BEA" transform="translate(0,0)"/>
<path d="" fill="#CA51DC" transform="translate(0,0)"/>
<path d="" fill="#C14DE6" transform="translate(0,0)"/>
<path d="" fill="#BE4CEC" transform="translate(0,0)"/>
<path d="" fill="#C14CE8" transform="translate(0,0)"/>
<path d="" fill="#BF4CE9" transform="translate(0,0)"/>
<path d="" fill="#BE4CEA" transform="translate(0,0)"/>
<path d="" fill="#C14DE6" transform="translate(0,0)"/>
<path d="" fill="#C14DE6" transform="translate(0,0)"/>
<path d="" fill="#C14DE6" transform="translate(0,0)"/>
<path d="" fill="#C14CE8" transform="translate(0,0)"/>
<path d="" fill="#C14DE6" transform="translate(0,0)"/>
<path d="" fill="#BA49F1" transform="translate(0,0)"/>
<path d="" fill="#C54FE1" transform="translate(0,0)"/>
<path d="" fill="#C14DE6" transform="translate(0,0)"/>
<path d="" fill="#BE4CEC" transform="translate(0,0)"/>
<path d="" fill="#B949F3" transform="translate(0,0)"/>
<path d="" fill="#C14DE6" transform="translate(0,0)"/>
<path d="" fill="#C14DE6" transform="translate(0,0)"/>
<path d="" fill="#C14DE6" transform="translate(0,0)"/>
</svg>
