<?xml version="1.0" encoding="utf-8"?>
<svg xmlns="http://www.w3.org/2000/svg" width="929" height="301" viewBox="0 0 929 301" fill="none">
<path fill-rule="evenodd" clip-rule="evenodd" d="M198.043 0C199.778 0 200.646 0 201.308 0.337666C201.891 0.634686 202.365 1.10863 202.662 1.69156C203 2.35427 203 3.2218 203 4.95686V117.84C203 118.6 203 118.979 202.914 119.337C202.838 119.653 202.712 119.956 202.542 120.234C202.349 120.547 202.08 120.815 201.543 121.351L170.963 151.833C168.309 154.478 166.983 155.801 165.844 155.889C164.856 155.966 163.891 155.565 163.248 154.811C162.506 153.942 162.506 152.069 162.506 148.323L162.506 41.1255C162.506 39.3904 162.506 38.5229 162.169 37.8602C161.872 37.2772 161.398 36.8033 160.815 36.5063C160.152 36.1686 159.285 36.1686 157.549 36.1686H126.624C124.889 36.1686 124.022 36.1686 123.359 36.5063C122.776 36.8033 122.302 37.2772 122.005 37.8602C121.667 38.5229 121.667 39.3904 121.667 41.1255L121.667 87.8838C121.667 89.6188 121.667 90.4864 121.33 91.1491C121.033 91.732 120.559 92.2059 119.976 92.503C119.313 92.8406 118.446 92.8406 116.711 92.8406H86.2899C84.5549 92.8406 83.6873 92.8406 83.0246 92.503C82.4417 92.2059 81.9677 91.732 81.6707 91.1491C81.3331 90.4864 81.3331 89.6188 81.3331 87.8838V28.9633C81.3331 28.2051 81.3331 27.826 81.4188 27.4692C81.4947 27.153 81.62 26.8506 81.7901 26.5733C81.9819 26.2606 82.2501 25.9926 82.7865 25.4567L106.815 1.45022C107.351 0.914996 107.619 0.647381 107.931 0.456007C108.208 0.286334 108.51 0.161303 108.826 0.0854995C109.183 0 109.561 0 110.318 0H198.043Z" fill="white"/>
<path d="M45.4507 193.898C43.7156 193.898 42.8481 193.898 42.1854 193.56C41.6024 193.263 41.1285 192.789 40.8315 192.206C40.4938 191.543 40.4938 190.676 40.4938 188.941L40.4937 79.5163C40.4937 75.7685 40.4937 73.8946 39.7522 73.0258C39.1088 72.2719 38.1435 71.8713 37.1553 71.9482C36.0165 72.0368 34.6898 73.3601 32.0363 76.0068L1.45635 106.508C0.918899 107.044 0.650174 107.312 0.457986 107.625C0.287594 107.903 0.162016 108.205 0.0858771 108.522C-1.56462e-06 108.879 -1.04277e-06 109.258 7.32689e-09 110.018L0.000156361 223.043C0.000158762 224.778 0.000159949 225.646 0.337826 226.308C0.634846 226.891 1.10879 227.365 1.69172 227.662C2.35443 228 3.22196 228 4.95702 228H91.7985C92.5537 228 92.9314 228 93.2869 227.915C93.6021 227.839 93.9035 227.715 94.1802 227.546C94.4922 227.356 94.7598 227.089 95.2952 226.556L120.207 201.762C120.746 201.226 121.015 200.958 121.208 200.645C121.379 200.367 121.505 200.064 121.581 199.747C121.667 199.389 121.667 199.009 121.667 198.249V133.209C121.667 131.474 121.667 130.607 121.329 129.944C121.032 129.361 120.558 128.887 119.976 128.59C119.313 128.253 118.445 128.253 116.71 128.253H86.2896C84.5546 128.253 83.6871 128.253 83.0244 128.59C82.4414 128.887 81.9675 129.361 81.6705 129.944C81.3328 130.607 81.3328 131.474 81.3328 133.209L81.3328 188.941C81.3328 190.676 81.3328 191.543 80.9951 192.206C80.6981 192.789 80.2241 193.263 79.6412 193.56C78.9785 193.898 78.111 193.898 76.3759 193.898H45.4507Z" fill="white"/>
<path d="M565.27 60.0068C565.27 58.2717 565.27 57.4042 565.607 56.7415C565.904 56.1586 566.378 55.6846 566.961 55.3876C567.624 55.0499 568.491 55.0499 570.226 55.0499H600.785C602.52 55.0499 603.388 55.0499 604.051 55.3876C604.633 55.6846 605.107 56.1586 605.404 56.7415C605.742 57.4042 605.742 58.2717 605.742 60.0068V238.332C605.742 239.089 605.742 239.467 605.657 239.823C605.581 240.139 605.456 240.441 605.287 240.718C605.096 241.03 604.828 241.298 604.294 241.834L546.7 299.545C546.164 300.082 545.896 300.35 545.583 300.542C545.306 300.713 545.003 300.838 544.687 300.914C544.33 301 543.95 301 543.191 301H449.477C447.742 301 446.875 301 446.212 300.662C445.629 300.365 445.155 299.891 444.858 299.308C444.52 298.646 444.52 297.778 444.52 296.043V268.113C444.52 266.378 444.52 265.51 444.858 264.847C445.155 264.265 445.629 263.791 446.212 263.494C446.875 263.156 447.742 263.156 449.477 263.156H528.276C529.032 263.156 529.41 263.156 529.766 263.071C530.081 262.995 530.383 262.87 530.659 262.701C530.972 262.51 531.239 262.244 531.775 261.71L556.774 236.794C559.438 234.138 560.77 232.811 560.861 231.671C560.94 230.681 560.54 229.714 559.786 229.069C558.916 228.326 557.036 228.326 553.275 228.326H480.81C480.051 228.326 479.672 228.326 479.315 228.24C478.998 228.164 478.696 228.039 478.418 227.868C478.105 227.676 477.837 227.408 477.301 226.871L445.969 195.484C445.435 194.948 445.167 194.68 444.976 194.368C444.806 194.091 444.682 193.789 444.606 193.473C444.52 193.117 444.52 192.739 444.52 191.982V60.0068C444.52 58.2717 444.52 57.4042 444.858 56.7415C445.155 56.1586 445.629 55.6846 446.212 55.3876C446.875 55.0499 447.742 55.0499 449.477 55.0499H480.036C481.771 55.0499 482.639 55.0499 483.302 55.3876C483.884 55.6846 484.358 56.1586 484.655 56.7415C484.993 57.4042 484.993 58.2717 484.993 60.0068V175.673C484.993 176.434 484.993 176.814 485.079 177.172C485.156 177.489 485.282 177.792 485.453 178.07C485.646 178.384 485.915 178.652 486.455 179.188L499.933 192.591C500.468 193.123 500.736 193.389 501.048 193.579C501.324 193.748 501.625 193.872 501.94 193.948C502.296 194.033 502.673 194.033 503.428 194.033H560.313C562.048 194.033 562.915 194.033 563.578 193.695C564.161 193.398 564.635 192.924 564.932 192.341C565.269 191.678 565.27 190.811 565.27 189.076V60.0068Z" fill="white"/>
<path d="M605.252 4.95686C605.252 3.2218 605.252 2.35427 605.589 1.69156C605.886 1.10863 606.36 0.634686 606.943 0.337666C607.606 0 608.473 0 610.209 0H648.29C649.038 0 649.412 0 649.765 0.0836718C650.078 0.157859 650.377 0.280251 650.652 0.446456C650.962 0.633909 651.229 0.89616 651.763 1.42066L675.606 24.8416C676.154 25.3791 676.427 25.6479 676.623 25.9629C676.797 26.2422 676.924 26.5473 677.002 26.8668C677.09 27.2272 677.09 27.6107 677.09 28.3778L677.089 176.636C677.089 177.408 677.089 177.795 677.178 178.157C677.257 178.479 677.386 178.786 677.562 179.066C677.76 179.383 678.037 179.652 678.591 180.19L691.388 192.63C691.921 193.148 692.187 193.407 692.496 193.592C692.77 193.756 693.067 193.877 693.378 193.95C693.728 194.033 694.1 194.033 694.843 194.033H741.612C742.365 194.033 742.741 194.033 743.096 194.117C743.41 194.192 743.711 194.316 743.987 194.484C744.299 194.674 744.566 194.939 745.101 195.469L769.694 219.849C772.374 222.506 773.714 223.834 773.807 224.975C773.888 225.966 773.489 226.935 772.735 227.581C771.865 228.326 769.978 228.326 766.204 228.326H673.92C673.177 228.326 672.805 228.326 672.455 228.243C672.144 228.17 671.847 228.049 671.573 227.885C671.264 227.7 670.998 227.441 670.465 226.923L638.44 195.792C637.886 195.253 637.609 194.984 637.411 194.667C637.235 194.387 637.105 194.08 637.027 193.759C636.938 193.396 636.938 193.01 636.938 192.237V34.6569H610.209C608.473 34.6569 607.606 34.6569 606.943 34.3192C606.36 34.0222 605.886 33.5482 605.589 32.9653C605.252 32.3026 605.252 31.4351 605.252 29.7V4.95686Z" fill="white"/>
<path fill-rule="evenodd" clip-rule="evenodd" d="M929 223.369C929 225.104 929 225.972 928.662 226.634C928.365 227.217 927.891 227.691 927.308 227.988C926.646 228.326 925.778 228.326 924.043 228.326H818.397C817.651 228.326 817.278 228.326 816.927 228.243C816.615 228.169 816.316 228.047 816.042 227.882C815.732 227.696 815.466 227.435 814.932 226.914L782.782 195.491C782.231 194.953 781.956 194.684 781.759 194.368C781.585 194.089 781.456 193.783 781.378 193.462C781.29 193.101 781.29 192.716 781.29 191.946V60.0068C781.29 58.2717 781.29 57.4042 781.627 56.7415C781.924 56.1586 782.398 55.6846 782.981 55.3876C783.644 55.0499 784.512 55.0499 786.247 55.0499L889.11 55.0894C889.868 55.0897 890.247 55.0899 890.604 55.1757C890.92 55.2519 891.222 55.3773 891.499 55.5475C891.812 55.7395 892.08 56.0078 892.616 56.5444L927.552 91.5453C928.086 92.081 928.354 92.3488 928.545 92.6612C928.714 92.9381 928.839 93.24 928.915 93.5558C929 93.9119 929 94.2903 929 95.0471L929 223.369ZM838.256 193.698C837.498 193.698 837.119 193.698 836.762 193.612C836.446 193.536 836.143 193.411 835.866 193.24C835.553 193.049 835.285 192.78 834.749 192.243L821.212 178.687C820.677 178.152 820.409 177.884 820.218 177.571C820.049 177.294 819.924 176.992 819.848 176.677C819.762 176.32 819.762 175.942 819.762 175.185V97.516C819.762 95.7809 819.762 94.9134 820.1 94.2507C820.397 93.6678 820.871 93.1938 821.454 92.8968C822.117 92.5591 822.984 92.5591 824.719 92.5591H874.291C875.035 92.5591 875.407 92.5591 875.758 92.6418C876.069 92.7152 876.367 92.8362 876.641 93.0006C876.95 93.186 877.216 93.4454 877.749 93.9642L889.599 105.501C890.152 106.039 890.429 106.308 890.627 106.624C890.802 106.905 890.931 107.211 891.01 107.532C891.098 107.895 891.099 108.281 891.099 109.052V188.891C891.099 190.485 891.098 191.281 890.812 191.9C890.504 192.567 889.968 193.103 889.301 193.412C888.682 193.698 887.885 193.698 886.292 193.698H838.256Z" fill="white"/>
<path d="M253 4.95687C253 3.2218 253 2.35427 253.338 1.69156C253.635 1.10863 254.109 0.634686 254.692 0.337666C255.354 0 256.222 0 257.957 0H288.516C290.251 0 291.118 0 291.781 0.337666C292.364 0.634686 292.838 1.10863 293.135 1.69156C293.473 2.35427 293.473 3.2218 293.473 4.95686V50.093C293.473 51.828 293.473 52.6956 293.81 53.3583C294.107 53.9412 294.581 54.4152 295.164 54.7122C295.827 55.0498 296.694 55.0498 298.43 55.0498H372.852C373.607 55.0498 373.985 55.0498 374.341 55.1349C374.656 55.2103 374.957 55.3347 375.234 55.5036C375.546 55.694 375.813 55.9603 376.349 56.493L411.133 91.1057C411.672 91.642 411.942 91.9102 412.135 92.2235C412.305 92.5013 412.431 92.8043 412.508 93.1213C412.594 93.4789 412.594 93.8591 412.594 94.6194V223.369C412.594 225.104 412.594 225.972 412.256 226.634C411.959 227.217 411.485 227.691 410.902 227.988C410.24 228.326 409.372 228.326 407.637 228.326H379.04C377.305 228.326 376.438 228.326 375.775 227.988C375.192 227.691 374.718 227.217 374.421 226.634C374.084 225.972 374.084 225.104 374.084 223.369V108.685C374.084 107.925 374.084 107.545 373.997 107.187C373.921 106.87 373.795 106.567 373.624 106.289C373.431 105.976 373.162 105.708 372.623 105.172L361.398 94.0022C360.863 93.4695 360.595 93.2032 360.283 93.0128C360.006 92.8439 359.705 92.7195 359.39 92.6441C359.034 92.559 358.657 92.559 357.902 92.559H298.43C296.694 92.559 295.827 92.559 295.164 92.8967C294.581 93.1937 294.107 93.6677 293.81 94.2506C293.473 94.9133 293.473 95.7808 293.473 97.5159V223.369C293.473 225.104 293.473 225.972 293.135 226.634C292.838 227.217 292.364 227.691 291.781 227.988C291.118 228.326 290.251 228.326 288.516 228.326H257.957C256.222 228.326 255.354 228.326 254.692 227.988C254.109 227.691 253.635 227.217 253.338 226.634C253 225.972 253 225.104 253 223.369V4.95687Z" fill="white"/>
</svg>