<svg width="400" height="400" viewBox="0 0 400 400" fill="none" xmlns="http://www.w3.org/2000/svg">
<rect width="400" height="400" fill="#2A136A"/>
<path d="M346.092 199.951C346.092 199.812 346.092 199.674 346.092 199.516C345.973 180.76 339.872 162.044 327.849 146.92C319.458 136.358 308.303 128.658 298.096 120.01C289.231 112.508 282.36 102.913 275.016 93.9491C261.729 78.3125 244.216 68.0657 225.085 63.3273C224.828 63.2681 224.572 63.2089 224.335 63.1299C223.545 62.9325 222.755 62.735 221.946 62.5573C215.352 61.0569 208.58 60.1882 201.847 59.9512C201.058 59.892 200.386 59.8723 199.972 59.892C199.478 59.892 198.728 59.892 197.859 59.9512C191.68 60.1882 185.46 60.9384 179.34 62.202C165.125 64.966 151.443 70.6916 139.913 79.5365C129.666 87.3944 121.946 97.7201 113.832 107.631C97.8794 127.098 74.7206 137.996 62.9931 161.313C59.0049 169.27 56.3791 177.739 55.0168 186.367C54.8589 187.335 54.7207 188.322 54.5825 189.309C54.5232 189.803 54.4442 190.316 54.385 190.81C54.1876 192.567 54.0691 194.324 53.9902 196.081C53.9902 196.259 53.9704 196.456 53.9704 196.634C53.8914 198.43 53.8914 200.227 53.9507 202.024C53.9507 202.28 53.9507 202.537 53.9507 202.794C54.0099 204.353 54.1086 205.913 54.2468 207.453C54.3258 208.302 54.4048 209.151 54.5035 210C54.6022 210.849 54.7207 211.698 54.8391 212.547C56.9714 227.157 62.7562 241.234 72.1934 253.08C80.071 262.971 90.4165 270.553 100.13 278.509C108.679 285.518 115.214 294.086 122.183 302.596C129.528 311.559 137.919 318.983 147.178 324.807C147.218 324.827 147.238 324.846 147.277 324.886C147.317 324.906 147.356 324.945 147.415 324.965C147.869 325.261 148.323 325.537 148.797 325.814C176.122 343.227 213.891 344.688 242.834 330.473C245.855 328.993 248.757 327.295 251.541 325.439C261.926 319.002 271.284 310.592 279.636 300.404C286.684 291.796 293.456 283.781 302.084 276.712C311.876 268.697 321.985 261.036 329.606 250.77C340.563 236.002 346.013 218.193 346.092 200.385C346.092 200.227 346.092 200.069 346.092 199.911V199.951ZM159.715 316.969C148.62 307.828 140.781 295.39 137.702 281.668C137.228 279.595 138.669 277.581 140.781 277.344C142.361 277.167 143.94 276.969 145.52 276.693C170.357 272.369 189.488 256.416 199.774 235.331C200.781 237.443 201.847 239.516 203.032 241.53C215.016 261.747 235.549 274.008 257.918 277.107C258.392 274.106 258.609 271.066 258.589 268.025C245.125 264.59 233.042 255.054 224.809 242.774C209.705 220.247 207.889 189.605 220.031 165.341C226.724 151.975 238.55 139.359 252.627 133.534C258.037 131.303 263.683 136.121 262.597 141.866C259.971 155.745 252.568 168.697 241.472 178.075C234.305 184.136 226.171 188.44 217.662 190.967C217.326 193.81 217.168 196.673 217.168 199.536C217.168 199.536 217.148 199.536 217.129 199.536C217.129 199.773 217.129 200.03 217.148 200.267C217.148 200.424 217.148 200.582 217.148 200.76C217.148 200.76 217.148 200.76 217.168 200.76C217.208 203.485 217.366 206.209 217.681 208.894C236.951 214.837 253.338 229.526 260.287 248.815C268.915 272.744 260.722 299.753 241.472 316.021C240.603 316.752 239.695 317.443 238.787 318.114C214.049 335.547 183.526 334.521 159.735 316.989L159.715 316.969ZM159.715 83.0508C186.467 63.2089 219.221 66.0914 243.348 85.6964C250.811 92.5671 256.753 101.116 260.248 110.849C261.136 113.317 261.827 115.825 262.36 118.352C262.775 120.366 261.373 122.32 259.34 122.557C240.465 124.828 222.538 133.613 209.982 148.579C205.875 153.455 202.479 158.806 199.774 164.472C191.166 146.683 176.26 132.389 156.379 125.894C151.64 124.354 146.783 123.307 141.887 122.656C141.453 125.598 141.255 128.559 141.315 131.481C141.394 131.501 141.492 131.521 141.571 131.54C171.226 139.753 187.316 171.027 187.83 199.931C187.356 226.012 174.937 252.606 150.811 264.709C149.528 265.34 148.264 265.913 146.981 266.406C141.65 268.479 136.102 264.018 137.07 258.391V258.272C141.236 234.679 159.715 215.923 182.045 208.914C182.459 205.834 182.696 202.813 182.756 199.911C182.696 196.989 182.42 193.968 182.005 190.948C176.477 189.289 171.068 186.861 165.954 183.564C144.849 169.961 132.687 145.38 137.09 120.326C139.557 106.269 147.099 93.9294 157.504 84.7685C158.235 84.1762 158.945 83.5642 159.696 83.0114L159.715 83.0508ZM324.275 208.282C322.222 229.052 313.673 245.4 299.557 257.7C298.609 258.529 297.681 259.279 296.773 259.97C291.482 264.037 283.881 261.076 282.341 254.58C282.341 254.541 282.321 254.501 282.301 254.462C274.937 224.136 248.975 206.17 220.248 200.128C228.106 198.529 235.727 196.022 242.815 192.547C262.301 182.971 277.385 165.439 282.301 145.025C283.821 138.668 291.265 135.943 296.595 139.734C298.55 141.116 300.386 142.616 302.143 144.215C318.135 161.511 326.664 183.919 324.256 208.263L324.275 208.282ZM97.8794 144.235C99.6366 142.636 101.492 141.135 103.427 139.753C108.758 135.963 116.201 138.707 117.721 145.045C122.637 165.439 137.721 182.991 157.208 192.567C164.296 196.041 171.917 198.549 179.774 200.148C151.048 206.19 125.086 224.136 117.721 254.482C117.721 254.521 117.702 254.56 117.682 254.6C116.122 261.076 108.521 264.037 103.25 259.99C102.341 259.299 101.413 258.549 100.466 257.719C86.3493 245.439 77.8005 229.072 75.7472 208.302C73.3385 183.959 81.8676 161.55 97.8597 144.255L97.8794 144.235Z" fill="#FFFEF7"/>
</svg>
