<svg width="22" height="32" viewBox="0 0 22 32" fill="none" xmlns="http://www.w3.org/2000/svg">
<path d="M20.3415 18.415V18.585C20.3289 19.43 20.102 20.225 19.7138 20.92C19.7012 20.9475 19.6835 20.975 19.6659 21.0025C19.4465 21.3825 19.1768 21.73 18.8667 22.0375C18.5566 22.345 18.2037 22.615 17.8205 22.8325C17.8079 22.8425 17.7927 22.85 17.7801 22.855C17.6995 22.215 17.4953 21.6125 17.1902 21.0725C17.1776 21.05 17.165 21.025 17.1499 21.0025C16.9835 20.71 16.7843 20.4375 16.56 20.1875C16.4919 20.11 16.4188 20.0325 16.3457 19.96C16.2146 19.83 16.0759 19.7075 15.9297 19.5925C15.7331 19.4325 15.5213 19.29 15.2995 19.165C14.6036 18.765 13.8045 18.5275 12.9524 18.5H7.65066C7.01536 18.49 6.4078 18.3625 5.84813 18.1375C5.6288 18.0525 5.41955 17.95 5.21787 17.835C5.21787 17.8325 5.21535 17.8325 5.21535 17.8325C4.99602 17.7075 4.78426 17.565 4.58762 17.4075C4.36072 17.2275 4.14896 17.03 3.95736 16.8125C3.73551 16.565 3.53887 16.2925 3.36996 16.0025C3.34727 15.965 2.71449 14.995 2.69433 13.585V13.415C2.69685 13.225 2.70945 13.0375 2.73466 12.855C2.92374 12.965 3.11534 13.0575 3.31954 13.14H3.32206C3.47584 13.2025 3.63215 13.2575 3.79349 13.3025C3.84896 13.32 3.9019 13.335 3.95736 13.3475C4.04307 13.37 4.12879 13.39 4.21703 13.4075C4.25736 13.415 4.2977 13.4225 4.33803 13.4275C4.36324 13.4325 4.38845 13.4375 4.41367 13.44C4.47165 13.4525 4.52963 13.46 4.58762 13.4675C4.73888 13.485 4.89014 13.495 5.04392 13.5H15.4734C15.6272 13.5025 15.781 13.515 15.9297 13.535C16.144 13.56 16.3558 13.6 16.56 13.6525C16.7768 13.7075 16.986 13.7775 17.1902 13.86C17.407 13.945 17.6188 14.0475 17.8205 14.165C18.2037 14.3825 18.5566 14.6525 18.8667 14.96C19.1793 15.27 19.4516 15.62 19.6709 16.0025C19.686 16.0275 19.7012 16.0525 19.7138 16.0775C20.102 16.7725 20.3289 17.5675 20.3415 18.415ZM17.7801 22.855C17.5911 22.9625 17.3944 23.0575 17.1902 23.1375C16.986 23.22 16.7768 23.29 16.56 23.345C16.3558 23.3975 16.144 23.4375 15.9297 23.4625C15.7507 23.485 15.5692 23.4975 15.3852 23.5H3.81114C3.63719 23.5 3.4708 23.5775 3.35736 23.71L2.69181 24.5025L0.175822 27.4975H0.173301L0.138007 27.54C-0.182164 27.92 0.0901071 28.5 0.591791 28.5H7.65066C7.97587 28.5 8.24058 28.7625 8.24058 29.085V31.415C8.24058 31.7375 8.50529 32 8.8305 32H11.6843C12.0095 32 12.2742 31.7375 12.2742 31.415V29.085C12.2742 28.7625 12.5389 28.5 12.8641 28.5C13.749 28.4875 14.581 28.245 15.2995 27.8325C15.5213 27.7075 15.7331 27.565 15.9297 27.405C15.9927 27.355 16.0558 27.3025 16.1163 27.25C16.1944 27.1825 16.2726 27.11 16.3457 27.0375C16.4188 26.965 16.4919 26.8875 16.56 26.81C16.7818 26.56 16.981 26.29 17.1474 26C17.1625 25.975 17.1776 25.95 17.1902 25.925C17.581 25.23 17.8079 24.4325 17.8205 23.585V23.415C17.818 23.225 17.8054 23.0375 17.7801 22.855ZM12.2742 2.915V0.585C12.2742 0.2625 12.0095 0 11.6843 0H8.8305C8.50529 0 8.24058 0.2625 8.24058 0.585V2.915C8.24058 3.2375 7.97587 3.5 7.65066 3.5H5.21535C4.54476 3.5 3.90694 3.63 3.32206 3.865C3.10525 3.9525 2.89349 4.055 2.69433 4.1725C2.47248 4.2975 2.26071 4.4425 2.06155 4.6C2.01113 4.64 1.96323 4.68 1.91533 4.7225C1.82961 4.7975 1.7439 4.8725 1.66323 4.9525C1.58255 5.0325 1.50692 5.11 1.43381 5.195C1.21196 5.4425 1.01784 5.71 0.851457 5.9975C0.624564 6.3825 0.450614 6.8025 0.334647 7.245C0.228763 7.645 0.173301 8.065 0.173301 8.5C0.173301 8.9325 0.228763 9.3475 0.329604 9.745C0.531286 10.5225 0.914482 11.2275 1.43381 11.81C1.62541 12.025 1.83466 12.225 2.06155 12.405C2.26071 12.5625 2.47248 12.7075 2.69433 12.8325C2.70693 12.8425 2.71954 12.85 2.73466 12.855C2.81534 12.2175 3.01954 11.6175 3.32206 11.0775C3.54895 10.665 3.83635 10.29 4.16913 9.96C4.24476 9.885 4.32039 9.8125 4.40106 9.745C4.65064 9.525 4.92543 9.33 5.21535 9.165C5.91115 8.765 6.71032 8.5275 7.56243 8.5H16.6986C16.8726 8.5 17.039 8.4225 17.1524 8.29L17.8205 7.495L20.3415 4.4975L20.3743 4.46C20.6944 4.08 20.4197 3.5 19.9205 3.5H12.8641C12.5389 3.5 12.2742 3.2375 12.2742 2.915Z" fill="#6BE3FB"/>
</svg>
