<svg width="89" height="88" viewBox="0 0 89 88" fill="none" xmlns="http://www.w3.org/2000/svg">
<path fill-rule="evenodd" clip-rule="evenodd" d="M44.25 88C19.9499 88 0.25 68.2999 0.25 43.9999C0.249999 30.25 8.32465 18.5899 8.32465 18.5899L17.0264 24.8216C17.0264 24.8216 10.9525 33.6975 10.9524 43.9999C10.9521 60.5678 23.053 74.3077 38.8984 76.8671L38.8984 65.956C29.0021 63.5524 21.6548 54.6351 21.6546 43.9999C26.6389 43.9999 27.4639 43.9999 32.3571 43.9999C32.3571 50.5678 37.682 55.8928 44.25 55.8928C50.8179 55.8928 56.1428 50.5678 56.1428 43.9999C56.1428 42.712 55.9375 41.4708 55.5589 40.3094C54.0568 35.7057 49.8235 32.3373 44.7738 32.1184C44.6001 32.1109 44.4255 32.1071 44.25 32.1071C38.9159 32.1071 34.1895 29.5055 31.2709 25.5029C29.3376 22.852 28.1964 19.5862 28.1964 16.0535L28.2449 14.7941C28.8866 6.51605 35.8074 1.86687e-08 44.25 1.86687e-08C44.4248 -5.02044e-06 46.6947 0.00101007 46.869 0.00303967C56.2108 0.111772 62.7567 3.13223 69.8342 8.19886C80.9836 16.1812 88.25 29.2425 88.25 43.9999C88.25 68.2999 68.5499 88 44.25 88ZM49.6015 76.8671C65.447 74.3068 77.5479 60.5678 77.5479 43.9999C77.5479 36.0396 74.7539 28.7319 70.0945 23.0028C64.5726 16.2147 55.764 10.8437 46.869 10.7065C46.6948 10.7038 44.4249 10.7025 44.25 10.7025C41.2946 10.7025 38.8984 13.098 38.8984 16.0535C38.8984 19.009 41.2946 21.4046 44.25 21.4046C44.425 21.4046 44.5997 21.4066 44.7738 21.4105C49.4042 21.5159 53.69 23.014 57.229 25.5029C60.2229 27.6071 62.6823 30.4195 64.3644 33.6975C65.9502 36.7866 66.8449 40.2883 66.8449 43.9999C66.8449 54.6351 59.4969 63.5524 49.6015 65.956L49.6015 76.8671Z" fill="white"/>
</svg>
